<?xml version="1.0" encoding="UTF-8"?>
<svg version="1.1" xmlns="http://www.w3.org/2000/svg" width="271" height="63">
<path d="M0 0 C2.08960585 1.36153452 3.7732814 2.92238295 5.609375 4.60546875 C9.51888147 7.78892402 13.16973072 7.58314053 17.984375 7.16796875 C20.32968379 6.92625554 22.64952576 6.62738726 24.984375 6.29296875 C24.984375 6.95296875 24.984375 7.61296875 24.984375 8.29296875 C23.004375 9.28296875 21.024375 10.27296875 18.984375 11.29296875 C21.294375 11.95296875 23.604375 12.61296875 25.984375 13.29296875 C25.984375 13.95296875 25.984375 14.61296875 25.984375 15.29296875 C24.664375 15.29296875 23.344375 15.29296875 21.984375 15.29296875 C21.984375 15.95296875 21.984375 16.61296875 21.984375 17.29296875 C24.624375 17.29296875 27.264375 17.29296875 29.984375 17.29296875 C29.984375 17.95296875 29.984375 18.61296875 29.984375 19.29296875 C26.024375 19.78796875 26.024375 19.78796875 21.984375 20.29296875 C25.614375 20.95296875 29.244375 21.61296875 32.984375 22.29296875 C32.984375 22.95296875 32.984375 23.61296875 32.984375 24.29296875 C27.704375 23.96296875 22.424375 23.63296875 16.984375 23.29296875 C17.479375 24.28296875 17.479375 24.28296875 17.984375 25.29296875 C18.63867424 34.45315807 16.51061296 42.31645568 10.65234375 49.4765625 C5.06989345 55.55581166 -0.78507452 60.17232135 -9.28515625 60.76171875 C-10.79912939 60.79589086 -12.31381932 60.80564546 -13.828125 60.79296875 C-14.62130127 60.78724854 -15.41447754 60.78152832 -16.23168945 60.77563477 C-24.74478331 60.51687017 -30.51533692 57.77354656 -36.828125 52.10546875 C-42.24149357 46.23138796 -45.49644219 39.25377185 -46.015625 31.29296875 C-46.93085937 31.58171875 -47.84609375 31.87046875 -48.7890625 32.16796875 C-49.97757813 32.53921875 -51.16609375 32.91046875 -52.390625 33.29296875 C-53.57398438 33.66421875 -54.75734375 34.03546875 -55.9765625 34.41796875 C-59.015625 35.29296875 -59.015625 35.29296875 -61.015625 35.29296875 C-61.015625 34.63296875 -61.015625 33.97296875 -61.015625 33.29296875 C-59.08094558 32.45310791 -57.14277371 31.62128848 -55.203125 30.79296875 C-54.12417969 30.32890625 -53.04523437 29.86484375 -51.93359375 29.38671875 C-49.015625 28.29296875 -49.015625 28.29296875 -46.015625 28.29296875 C-46.345625 27.96296875 -46.675625 27.63296875 -47.015625 27.29296875 C-49.03971255 27.38299273 -51.06106787 27.53937913 -53.078125 27.73046875 C-54.18285156 27.83230469 -55.28757812 27.93414063 -56.42578125 28.0390625 C-57.70775391 28.16474609 -57.70775391 28.16474609 -59.015625 28.29296875 C-59.015625 27.63296875 -59.015625 26.97296875 -59.015625 26.29296875 C-57.4333244 25.95476709 -55.84973125 25.62260936 -54.265625 25.29296875 C-53.38390625 25.10734375 -52.5021875 24.92171875 -51.59375 24.73046875 C-49.015625 24.29296875 -49.015625 24.29296875 -45.015625 24.29296875 C-45.015625 23.63296875 -45.015625 22.97296875 -45.015625 22.29296875 C-48.975625 21.96296875 -52.935625 21.63296875 -57.015625 21.29296875 C-57.015625 20.63296875 -57.015625 19.97296875 -57.015625 19.29296875 C-52.725625 19.29296875 -48.435625 19.29296875 -44.015625 19.29296875 C-46.59347346 16.64544871 -48.93210598 14.3486481 -52.015625 12.29296875 C-51.685625 11.63296875 -51.355625 10.97296875 -51.015625 10.29296875 C-49.035625 10.95296875 -47.055625 11.61296875 -45.015625 12.29296875 C-45.5209375 11.95523437 -46.02625 11.6175 -46.546875 11.26953125 C-47.1965625 10.82351563 -47.84625 10.3775 -48.515625 9.91796875 C-49.1653125 9.47710937 -49.815 9.03625 -50.484375 8.58203125 C-50.9896875 8.15664062 -51.495 7.73125 -52.015625 7.29296875 C-52.015625 6.63296875 -52.015625 5.97296875 -52.015625 5.29296875 C-51.30019531 5.53015625 -50.58476563 5.76734375 -49.84765625 6.01171875 C-44.76513827 7.32672987 -41.42721463 7.93301612 -36.53515625 5.71484375 C-34.27579637 4.34223051 -32.17741649 2.85254862 -30.0234375 1.30859375 C-21.29176246 -4.54276251 -9.31742031 -4.70971793 0 0 Z " fill="#040404" transform="translate(61.015625,2.70703125)"/>
<path d="M0 0 C2.97 0 5.94 0 9 0 C9 9.9 9 19.8 9 30 C17.25 30 25.5 30 34 30 C34 32.97 34 35.94 34 39 C25.42 39 16.84 39 8 39 C8 43.95 8 48.9 8 54 C14.93 54 21.86 54 29 54 C29 56.64 29 59.28 29 62 C19.43 62 9.86 62 0 62 C0 41.54 0 21.08 0 0 Z " fill="#006699" transform="translate(96,0)"/>
<path d="M0 0 C3.856875 -0.061875 7.71375 -0.12375 11.6875 -0.1875 C13.4986731 -0.22846802 13.4986731 -0.22846802 15.34643555 -0.27026367 C16.308479 -0.27775635 17.27052246 -0.28524902 18.26171875 -0.29296875 C19.24100342 -0.3086792 20.22028809 -0.32438965 21.22924805 -0.34057617 C24.50915039 0.06258391 26.37205357 1.02103084 29 3 C29.95079489 6.713693 29.73853752 10.24961416 29 14 C26.625 16.125 26.625 16.125 24 17 C23.34 17.33 22.68 17.66 22 18 C24.97 19.65 27.94 21.3 31 23 C31 23.66 31 24.32 31 25 C23.0999545 25.93729353 18.58305401 23.56011728 11.8203125 19.53125 C9.09545257 17.76142721 9.09545257 17.76142721 6 18 C6 20.31 6 22.62 6 25 C4.02 25 2.04 25 0 25 C0 16.75 0 8.5 0 0 Z M5 6 C5 7.65 5 9.3 5 11 C10.94 11 16.88 11 23 11 C23.33 9.68 23.66 8.36 24 7 C23.02667739 5.80658248 23.02667739 5.80658248 21.23413086 5.88647461 C20.48526611 5.89171143 19.73640137 5.89694824 18.96484375 5.90234375 C18.15595703 5.90556641 17.34707031 5.90878906 16.51367188 5.91210938 C15.66353516 5.92048828 14.81339844 5.92886719 13.9375 5.9375 C13.08349609 5.94201172 12.22949219 5.94652344 11.34960938 5.95117188 C9.23304337 5.96299627 7.11651315 5.98093231 5 6 Z " fill="#006699" transform="translate(240,14)"/>
<path d="M0 0 C1.30453125 -0.02578125 2.6090625 -0.0515625 3.953125 -0.078125 C7.99002713 0.27074309 10.34501764 1.09418276 13.75 3.25 C15.85209857 6.40314785 15.9934761 7.11103081 15.9453125 10.69921875 C15.93886719 11.54677734 15.93242187 12.39433594 15.92578125 13.26757812 C15.90902344 14.14865234 15.89226562 15.02972656 15.875 15.9375 C15.86597656 16.83017578 15.85695312 17.72285156 15.84765625 18.64257812 C15.82409748 20.84532314 15.79120329 23.04752588 15.75 25.25 C13.77 25.25 11.79 25.25 9.75 25.25 C9.75 22.61 9.75 19.97 9.75 17.25 C3.81 17.25 -2.13 17.25 -8.25 17.25 C-8.25 19.89 -8.25 22.53 -8.25 25.25 C-10.23 25.25 -12.21 25.25 -14.25 25.25 C-14.38530844 22.18601549 -14.4842407 19.12802874 -14.5625 16.0625 C-14.60439453 15.19818359 -14.64628906 14.33386719 -14.68945312 13.44335938 C-14.77726393 8.85963541 -14.77442341 6.91814794 -11.85546875 3.19921875 C-7.67909747 0.07476708 -5.22514871 0.06147234 0 0 Z M-8.25 8.25 C-8.25 9.24 -8.25 10.23 -8.25 11.25 C-2.31 11.25 3.63 11.25 9.75 11.25 C9.17874646 7.50724788 9.17874646 7.50724788 7.75 6.25 C5.6278002 6.12430497 3.50088655 6.07423227 1.375 6.0625 C0.21226562 6.04832031 -0.95046875 6.03414062 -2.1484375 6.01953125 C-5.41797789 6.00700027 -5.41797789 6.00700027 -8.25 8.25 Z " fill="#006699" transform="translate(219.25,13.75)"/>
<path d="M0 0 C3.07673557 0.35797879 4.9745432 1.51040306 7.34765625 3.43359375 C7.95287109 3.91763672 8.55808594 4.40167969 9.18164062 4.90039062 C10.11266602 5.66125977 10.11266602 5.66125977 11.0625 6.4375 C12.30268323 7.43706976 13.54354447 8.43579901 14.78515625 9.43359375 C15.33051025 9.87759521 15.87586426 10.32159668 16.43774414 10.77905273 C17.90450138 11.92536512 19.45108773 12.96739182 21 14 C21.33 9.38 21.66 4.76 22 0 C23.98 0 25.96 0 28 0 C28 7.92 28 15.84 28 24 C24 25 24 25 22.23242188 24.05957031 C21.3594043 23.32625488 21.3594043 23.32625488 20.46875 22.578125 C19.82292969 22.04703125 19.17710937 21.5159375 18.51171875 20.96875 C17.84785156 20.4015625 17.18398437 19.834375 16.5 19.25 C15.17731695 18.1507605 13.85440684 17.05179415 12.53125 15.953125 C11.94923828 15.45973633 11.36722656 14.96634766 10.76757812 14.45800781 C8.8931076 12.91182853 6.9439029 11.45792717 5 10 C4.67 14.95 4.34 19.9 4 25 C2.02 25 0.04 25 -2 25 C-2.05786668 21.20839703 -2.09355054 17.41690689 -2.125 13.625 C-2.14175781 12.54476563 -2.15851563 11.46453125 -2.17578125 10.3515625 C-2.18222656 9.3203125 -2.18867188 8.2890625 -2.1953125 7.2265625 C-2.20578613 6.27346191 -2.21625977 5.32036133 -2.22705078 4.33837891 C-2 2 -2 2 0 0 Z " fill="#006598" transform="translate(172,14)"/>
<path d="M0 0 C1.98 0 3.96 0 6 0 C6 5.94 6 11.88 6 18 C11.94 18 17.88 18 24 18 C24 12.06 24 6.12 24 0 C25.98 0 27.96 0 30 0 C30.11604679 3.4372166 30.18719508 6.87393086 30.25 10.3125 C30.30027344 11.77719727 30.30027344 11.77719727 30.3515625 13.27148438 C30.36445313 14.20927734 30.37734375 15.14707031 30.390625 16.11328125 C30.41157227 16.97735596 30.43251953 17.84143066 30.45410156 18.73168945 C30 21 30 21 28.09399414 22.76342773 C22.10154578 26.30216516 13.84419735 25.89006274 7.25 24.36328125 C1.46166468 22.46166468 1.46166468 22.46166468 0 21 C-0.08685603 19.43827255 -0.10702219 17.87270656 -0.09765625 16.30859375 C-0.09443359 15.36435547 -0.09121094 14.42011719 -0.08789062 13.44726562 C-0.07951172 12.45404297 -0.07113281 11.46082031 -0.0625 10.4375 C-0.05798828 9.44041016 -0.05347656 8.44332031 -0.04882812 7.41601562 C-0.03700007 4.94395151 -0.02051849 2.47200482 0 0 Z " fill="#006699" transform="translate(136,14)"/>
<path d="M0 0 C2.31 0 4.62 0 7 0 C8 1 8 1 8.09765625 4.37890625 C8.09191424 5.77347492 8.07890228 7.16801597 8.0625 8.5625 C8.0315625 12.2440625 8.0315625 12.2440625 8 16 C14.93 16 21.86 16 29 16 C29 18.64 29 21.28 29 24 C19.43 24 9.86 24 0 24 C0 16.08 0 8.16 0 0 Z " fill="#7EB1CB" transform="translate(96,38)"/>
<path d="M0 0 C4.55247036 -0.46453779 7.08239929 -0.2560087 10.625 2.5625 C13.26650552 4.6957986 13.26650552 4.6957986 16.625 5.0625 C19.14779308 4.07773988 19.14779308 4.07773988 21.3125 1.9375 C25.07680604 -0.77630203 27.43787423 -0.30929666 32 0 C32 0.66 32 1.32 32 2 C30.217871 3.44074715 28.37339724 4.80510649 26.5 6.125 C25.4790625 6.84945312 24.458125 7.57390625 23.40625 8.3203125 C22.6121875 8.87460937 21.818125 9.42890625 21 10 C21.7940625 10.55429687 22.588125 11.10859375 23.40625 11.6796875 C24.4271875 12.40414062 25.448125 13.12859375 26.5 13.875 C27.5209375 14.59429687 28.541875 15.31359375 29.59375 16.0546875 C30.3878125 16.69664063 31.181875 17.33859375 32 18 C32 18.66 32 19.32 32 20 C26.08797654 20.73900293 26.08797654 20.73900293 22.9296875 18.59375 C22.25164062 18.0265625 21.57359375 17.459375 20.875 16.875 C18.92618516 15.22560047 18.92618516 15.22560047 17 14 C13.53188889 14.48392248 12.21748971 15.80540394 9.625 18.125 C6.25562914 20.53169347 4.04831425 20.31751484 0 20 C1.26540052 16.20379845 2.78218431 15.51321812 6.0625 13.3125 C7.44115234 12.37857422 7.44115234 12.37857422 8.84765625 11.42578125 C9.55792969 10.95527344 10.26820313 10.48476563 11 10 C10.2059375 9.44570313 9.411875 8.89140625 8.59375 8.3203125 C7.5728125 7.59585938 6.551875 6.87140625 5.5 6.125 C4.4790625 5.40570313 3.458125 4.68640625 2.40625 3.9453125 C1.6121875 3.30335937 0.818125 2.66140625 0 2 C0 1.34 0 0.68 0 0 Z " fill="#7FB2CC" transform="translate(193,42)"/>
<path d="M0 0 C5.03019677 0.28507514 8.05977029 3.02098997 11.8125 6.0625 C12.40998047 6.53494141 13.00746094 7.00738281 13.62304688 7.49414062 C15.08843126 8.65472506 16.54510876 9.82628832 18 11 C18.33 7.37 18.66 3.74 19 0 C20.65 0 22.3 0 24 0 C24 5.94 24 11.88 24 18 C22.02 18.99 22.02 18.99 20 20 C17.68687105 18.18829771 15.37447123 16.37567861 13.0625 14.5625 C12.40314453 14.04623047 11.74378906 13.52996094 11.06445312 12.99804688 C10.43603516 12.50498047 9.80761719 12.01191406 9.16015625 11.50390625 C8.57886963 11.04830322 7.99758301 10.5927002 7.39868164 10.12329102 C6 9 6 9 5 8 C4.67 11.96 4.34 15.92 4 20 C2.35 20 0.7 20 -1 20 C-1.02888514 16.85418577 -1.04675923 13.70840531 -1.0625 10.5625 C-1.07087891 9.66466797 -1.07925781 8.76683594 -1.08789062 7.84179688 C-1.09111328 6.98779297 -1.09433594 6.13378906 -1.09765625 5.25390625 C-1.10551147 4.06776733 -1.10551147 4.06776733 -1.11352539 2.85766602 C-1 1 -1 1 0 0 Z " fill="#7FB2CC" transform="translate(140,42)"/>
<path d="M0 0 C1.65 0 3.3 0 5 0 C5.88829601 11.12015003 4.52343315 19.4733792 -2.828125 28.16015625 C-9.45197495 34.5012809 -16.78326269 37.18200879 -25.875 37.5625 C-34.21545105 37.2990217 -42.03558615 34.88376867 -48.5 29.4375 C-53.5304881 23.70750616 -55.28689817 15.41521426 -55 8 C-53.02 7.67 -51.04 7.34 -49 7 C-49.14179687 7.845625 -49.28359375 8.69125 -49.4296875 9.5625 C-50.5582205 17.43710542 -50.5582205 17.43710542 -47.5625 24.5 C-42.93541031 29.61358277 -36.97978574 33.68430828 -29.99609375 34.23828125 C-20.66584575 34.43287479 -13.33357971 33.68815295 -6.0625 27.5 C-5.381875 26.675 -4.70125 25.85 -4 25 C-3.20952271 24.08686035 -3.20952271 24.08686035 -2.40307617 23.15527344 C-0.73464115 20.59238073 -0.58083994 19.05155012 -0.48828125 16.015625 C-0.45283203 15.08105469 -0.41738281 14.14648438 -0.38085938 13.18359375 C-0.35830078 12.21550781 -0.33574219 11.24742188 -0.3125 10.25 C-0.27833984 9.26644531 -0.24417969 8.28289063 -0.20898438 7.26953125 C-0.12664727 4.84646801 -0.05745162 2.42376002 0 0 Z " fill="#6B6E6F" transform="translate(72,25)"/>
<path d="M0 0 C1.65 0 3.3 0 5 0 C5 4.62 5 9.24 5 14 C9.29 14 13.58 14 18 14 C18.33 9.38 18.66 4.76 19 0 C20.65 0 22.3 0 24 0 C24.13487595 2.77245014 24.23400807 5.53837088 24.3125 8.3125 C24.35439453 9.09818359 24.39628906 9.88386719 24.43945312 10.69335938 C24.48628199 12.8943158 24.45565833 14.84548504 24 17 C20.6339698 20.17596292 17.5072643 20.3872378 13 20.3125 C11.4840625 20.30669922 11.4840625 20.30669922 9.9375 20.30078125 C5.78350198 19.87543837 2.96806272 18.96806272 0 16 C-0.14507695 13.25514407 -0.18652423 10.61519457 -0.125 7.875 C-0.11146484 6.74384766 -0.11146484 6.74384766 -0.09765625 5.58984375 C-0.0740687 3.72642746 -0.03819719 1.86317407 0 0 Z " fill="#7FB2CC" transform="translate(167,42)"/>
<path d="M0 0 C2.25137054 1.46462787 4.07282568 3.08118452 5.77734375 5.15625 C5.11734375 5.48625 4.45734375 5.81625 3.77734375 6.15625 C2.78734375 5.82625 1.79734375 5.49625 0.77734375 5.15625 C-1.7332053 5.0032853 -4.2215415 4.89929822 -6.734375 4.83984375 C-7.46259964 4.81906265 -8.19082428 4.79828156 -8.94111633 4.77687073 C-11.264035 4.71156254 -13.58706531 4.65257763 -15.91015625 4.59375 C-17.4863396 4.55054695 -19.06251173 4.50693208 -20.63867188 4.46289062 C-24.499886 4.3559004 -28.36121228 4.25458039 -32.22265625 4.15625 C-31.22265625 1.15625 -31.22265625 1.15625 -29.4296875 -0.01171875 C-19.89640635 -4.07075037 -9.38667457 -4.89435545 0 0 Z " fill="#0A6999" transform="translate(61.22265625,2.84375)"/>
<path d="M0 0 C1.65 0 3.3 0 5 0 C5 6.6 5 13.2 5 20 C3.35 20 1.7 20 0 20 C0 13.4 0 6.8 0 0 Z " fill="#7FB2CC" transform="translate(130,42)"/>
<path d="M0 0 C4.29 0 8.58 0 13 0 C14 5 14 5 12.98046875 6.76953125 C10.1233935 8.54463718 7.64839253 8.52235681 4.3125 8.6875 C3.13300781 8.75324219 1.95351562 8.81898437 0.73828125 8.88671875 C-0.61716797 8.94279297 -0.61716797 8.94279297 -2 9 C-2 8.34 -2 7.68 -2 7 C-0.4176994 6.66179834 1.16589375 6.32964061 2.75 6 C3.63171875 5.814375 4.5134375 5.62875 5.421875 5.4375 C8 5 8 5 12 5 C12 4.34 12 3.68 12 3 C8.04 2.67 4.08 2.34 0 2 C0 1.34 0 0.68 0 0 Z " fill="#010101" transform="translate(4,22)"/>
<path d="M0 0 C0 0.66 0 1.32 0 2 C-1.50240234 1.94779297 -1.50240234 1.94779297 -3.03515625 1.89453125 C-10.01343956 1.72627426 -15.70774636 1.64413139 -22 5 C-23.32 5 -24.64 5 -26 5 C-25 2 -25 2 -23.22265625 0.85546875 C-15.84807453 -1.98290277 -7.65886634 -0.94643786 0 0 Z " fill="#6B6D6E" transform="translate(55,2)"/>
<path d="M0 0 C0.99 0 1.98 0 3 0 C3.3690205 13.6332574 3.3690205 13.6332574 1 20 C0.67 20 0.34 20 0 20 C0 13.4 0 6.8 0 0 Z " fill="#035A87" transform="translate(72,25)"/>
<path d="M0 0 C3.23464915 0.99461137 6.09190613 2.27668511 9 4 C6.13822943 5.43088528 4.06624227 4.59991697 1 4 C1 3.34 1 2.68 1 2 C-4.94 2 -10.88 2 -17 2 C-11.90591703 -1.39605531 -5.94587307 -0.55340377 0 0 Z " fill="#343333" transform="translate(54,0)"/>
<path d="M0 0 C0.43570312 0.40992188 0.87140625 0.81984375 1.3203125 1.2421875 C5.09126402 4.65400078 8.00728883 6.67540316 13 8 C14.46317691 8.5284432 15.92143897 9.07065423 17.375 9.625 C18.57125 10.07875 19.7675 10.5325 21 11 C21 11.33 21 11.66 21 12 C14.59736908 12.65668009 9.0571805 10.45074592 4.08984375 6.46875 C2.4375 4.875 2.4375 4.875 0 2 C0 1.34 0 0.68 0 0 Z " fill="#474747" transform="translate(21,49)"/>
<path d="M0 0 C1.32 0 2.64 0 4 0 C3.67 3.3 3.34 6.6 3 10 C2.34 10 1.68 10 1 10 C-0.60725635 6.78548731 -0.05748185 3.56387464 0 0 Z " fill="#036394" transform="translate(19,32)"/>
<path d="M0 0 C2.0625 0.4375 2.0625 0.4375 4 1 C3.67 3.31 3.34 5.62 3 8 C2.01 8.33 1.02 8.66 0 9 C-0.87890625 2.84765625 -0.87890625 2.84765625 -1 1 C-0.67 0.67 -0.34 0.34 0 0 Z " fill="#D3B300" transform="translate(46,25)"/>
<path d="M0 0 C0.66 0 1.32 0 2 0 C2 4.62 2 9.24 2 14 C1.01 14.33 0.02 14.66 -1 15 C-0.67 10.05 -0.34 5.1 0 0 Z " fill="#647279" transform="translate(75,25)"/>
<path d="M0 0 C1.65 0 3.3 0 5 0 C5 1.32 5 2.64 5 4 C3.02 4.33 1.04 4.66 -1 5 C-0.67 3.35 -0.34 1.7 0 0 Z " fill="#284554" transform="translate(17,25)"/>
<path d="M0 0 C1.45947705 0.06006078 2.91779272 0.1488689 4.375 0.25 C5.59316406 0.31960937 5.59316406 0.31960937 6.8359375 0.390625 C9 1 9 1 10.2890625 3.046875 C10.64097656 4.01367188 10.64097656 4.01367188 11 5 C7.27566618 3.7874262 3.62197194 2.49140021 0 1 C0 0.67 0 0.34 0 0 Z " fill="#606466" transform="translate(56,4)"/>
<path d="M0 0 C3.55780196 0.60990891 6.6828589 1.5783681 10 3 C10 3.33 10 3.66 10 4 C7.25 4.25 7.25 4.25 4 4 C1.625 2 1.625 2 0 0 Z " fill="#ACACAC" transform="translate(29,18)"/>
</svg>
